<?xml version="1.0" standalone="no"?>
<!DOCTYPE svg PUBLIC "-//W3C//DTD SVG 20010904//EN"
 "http://www.w3.org/TR/2001/REC-SVG-20010904/DTD/svg10.dtd">
<svg version="1.0" xmlns="http://www.w3.org/2000/svg"
 width="300.000000pt" height="300.000000pt" viewBox="0 0 300.000000 300.000000"
 preserveAspectRatio="xMidYMid meet">
<metadata>
Created by potrace 1.14, written by Peter Selinger 2001-2017
</metadata>
<g transform="translate(0.000000,300.000000) scale(0.100000,-0.100000)"
fill="#000000" stroke="none">
<path d="M1491 2978 c-5 -13 -17 -42 -26 -66 -19 -46 -12 -70 11 -36 11 15 22
19 44 16 17 -2 30 -10 30 -18 0 -8 7 -14 16 -14 10 0 13 6 10 18 -37 113 -66
148 -85 100z m31 -60 c-13 -13 -24 5 -16 27 7 16 8 16 17 0 6 -11 6 -20 -1
-27z"/>
<path d="M1615 2976 c-10 -40 -10 -111 0 -116 6 -3 11 7 13 23 4 36 28 35 47
-3 17 -32 49 -43 38 -12 -3 9 -10 22 -14 28 -5 6 0 17 11 26 23 21 16 57 -14
63 -68 13 -76 13 -81 -9z m67 -14 c11 -5 14 -12 9 -20 -11 -19 -45 -11 -49 11
-4 18 10 21 40 9z"/>
<path d="M1283 2974 c-2 -6 -2 -24 1 -40 2 -16 5 -41 5 -56 1 -18 6 -28 17
-28 11 0 15 8 12 27 -2 22 2 28 21 33 14 3 27 12 29 19 3 10 -3 11 -28 6 -28
-6 -31 -4 -28 12 2 10 9 19 16 19 6 1 19 2 27 3 8 0 15 6 15 11 0 15 -81 9
-87 -6z"/>
<path d="M1760 2965 c0 -8 8 -15 19 -15 17 0 18 -3 6 -54 -7 -30 -10 -57 -7
-60 13 -14 21 -2 33 50 10 46 16 55 31 51 27 -8 33 12 6 22 -51 18 -88 21 -88
6z"/>
<path d="M1158 2963 c-9 -2 -21 -17 -28 -32 -23 -57 16 -115 72 -104 55 11 72
75 32 118 -22 24 -39 28 -76 18z m64 -49 c14 -31 1 -57 -30 -62 -26 -4 -46 30
-38 64 9 34 52 33 68 -2z"/>
<path d="M1903 2934 c-24 -10 -14 -49 19 -76 30 -24 31 -27 14 -34 -14 -5 -24
-1 -37 15 -22 26 -44 20 -29 -9 10 -20 57 -40 78 -33 7 3 17 14 23 24 8 17 5
25 -21 49 -38 36 -36 61 2 31 31 -25 38 -26 38 -7 0 26 -57 52 -87 40z"/>
<path d="M1005 2905 c-16 -51 -13 -49 -41 -30 -18 11 -29 14 -36 7 -7 -7 1
-18 24 -33 19 -13 40 -35 46 -51 14 -37 37 -38 27 0 -10 35 -10 40 -1 85 4 24
3 37 -4 37 -6 0 -13 -7 -15 -15z"/>
<path d="M848 2848 c-27 -11 -48 -27 -48 -35 0 -10 5 -11 19 -4 20 11 33 -2
59 -61 11 -27 22 -34 34 -22 3 3 -5 27 -18 54 -28 59 -28 60 -9 60 8 0 15 7
15 15 0 18 5 19 -52 -7z"/>
<path d="M2150 2842 c-15 -5 -30 -21 -30 -34 0 -3 11 -20 25 -36 30 -36 31
-42 4 -42 -12 0 -23 8 -26 19 -3 11 -11 22 -19 25 -23 9 -17 -31 8 -54 30 -28
66 -26 80 5 10 22 8 29 -15 53 -31 32 -34 42 -11 42 9 0 18 -9 21 -20 6 -22
33 -28 33 -7 -1 28 -43 58 -70 49z"/>
<path d="M755 2800 c-12 -20 55 -127 73 -116 7 4 -1 27 -25 66 -38 64 -39 65
-48 50z"/>
<path d="M1990 2790 c0 -5 0 -13 1 -16 0 -4 -5 -11 -13 -16 -9 -7 -8 -8 7 -6
21 3 35 48 16 48 -6 0 -11 -4 -11 -10z"/>
<path d="M1460 2781 c-68 -14 -107 -46 -335 -271 -126 -125 -335 -331 -464
-456 -305 -299 -394 -391 -404 -416 -6 -18 10 -39 111 -137 137 -135 262 -218
439 -292 62 -26 141 -67 175 -92 77 -55 194 -172 301 -300 44 -53 108 -90 141
-81 45 11 87 124 102 271 3 32 7 72 9 88 2 17 4 65 4 108 1 87 10 94 48 37 23
-34 24 -57 7 -190 -3 -25 -7 -58 -9 -75 -19 -173 -73 -267 -159 -280 -73 -11
-124 20 -271 170 -71 73 -146 144 -165 157 -19 14 -97 57 -172 96 -184 94
-322 190 -482 335 -94 86 -112 91 -108 28 4 -72 45 -130 201 -284 80 -80 313
-314 517 -520 204 -206 384 -384 401 -396 28 -21 32 -22 59 -8 16 9 63 51 105
94 126 129 211 252 274 393 58 132 94 201 130 250 35 48 186 199 271 271 88
76 115 137 77 172 -19 16 -120 52 -179 63 -34 6 -142 11 -283 13 -73 1 -73 1
-59 23 29 44 75 58 169 53 177 -9 333 -55 375 -110 41 -54 42 -95 5 -170 -25
-51 -55 -86 -146 -171 -143 -135 -171 -173 -254 -337 -109 -213 -175 -307
-361 -510 -25 -26 -45 -54 -45 -60 0 -19 105 -13 145 8 31 16 987 963 1082
1073 21 24 38 50 38 58 0 14 -110 129 -192 201 -74 65 -177 128 -343 209 -185
90 -269 152 -390 290 -142 161 -181 191 -235 184 -62 -8 -110 -213 -111 -477
0 -35 -4 -63 -8 -63 -4 0 -18 12 -32 26 -21 22 -24 36 -25 101 -1 116 30 287
68 368 21 46 87 95 128 95 64 0 164 -74 293 -218 67 -74 162 -144 268 -197
188 -93 355 -207 498 -341 84 -77 96 -85 106 -70 16 22 3 86 -30 141 -13 22
-101 119 -195 215 -727 739 -890 900 -908 900 -27 0 -116 -80 -220 -199 -53
-61 -145 -206 -185 -292 -24 -52 -52 -112 -62 -134 -39 -83 -82 -135 -261
-310 -197 -193 -205 -206 -159 -249 48 -44 152 -63 460 -81 39 -2 71 -4 73 -4
6 -2 -34 -39 -58 -54 -57 -36 -399 15 -475 71 -30 22 -55 74 -55 112 0 63 40
120 195 274 151 151 151 151 224 291 96 187 229 376 374 531 45 48 58 74 38
74 -5 0 -15 2 -23 4 -7 2 -29 0 -48 -3z m231 -252 c33 -17 112 -90 314 -288
111 -108 251 -237 313 -286 111 -88 123 -107 60 -100 -88 12 -213 108 -408
315 -263 279 -293 307 -338 315 -59 10 -91 -13 -145 -104 -66 -111 -143 -265
-173 -346 -33 -86 -38 -92 -60 -71 -22 23 -34 17 -60 -30 -12 -21 -67 -79
-123 -127 -113 -99 -125 -124 -71 -152 39 -20 69 -19 76 3 18 55 41 96 68 118
24 21 37 25 72 20 52 -6 74 -19 102 -61 31 -44 44 -93 31 -116 -17 -32 -49
-41 -158 -42 -125 -2 -190 14 -232 55 -52 53 -38 86 91 212 50 49 110 115 133
147 30 44 46 58 59 53 14 -4 28 16 74 108 95 190 156 297 192 333 54 54 130
73 183 44z m-546 -197 c-8 -27 -32 -75 -53 -108 -37 -56 -216 -246 -292 -308
-133 -110 -242 -216 -267 -260 -24 -42 -16 -83 24 -121 40 -38 224 -132 383
-195 151 -60 145 -56 120 -87 l-20 -26 48 -32 c26 -18 65 -54 87 -81 57 -70
130 -144 142 -144 19 0 52 34 58 60 5 23 0 28 -57 55 -70 34 -100 73 -100 131
0 75 104 158 176 140 36 -9 49 -55 49 -164 -1 -111 -22 -197 -59 -242 -21 -25
-31 -29 -60 -25 -45 5 -57 15 -145 109 -41 43 -109 104 -152 134 -60 42 -76
58 -72 72 5 16 -25 34 -187 115 -106 53 -205 108 -221 123 -40 38 -70 108 -70
161 1 88 22 117 199 276 183 166 322 307 394 403 61 80 76 96 82 81 4 -10 1
-40 -7 -67z m603 -265 c17 -13 46 -42 63 -63 42 -54 90 -97 182 -161 45 -32
76 -61 73 -68 -5 -14 22 -30 229 -134 148 -75 185 -103 218 -166 26 -51 28
-136 3 -187 -10 -22 -77 -93 -154 -165 -236 -221 -327 -317 -434 -458 -27 -37
-52 -65 -54 -62 -12 12 -11 52 1 88 39 111 175 265 435 494 125 110 166 160
176 211 7 37 -12 77 -50 104 -59 43 -202 115 -329 165 -78 32 -146 61 -152 66
-6 6 -5 16 3 29 17 27 17 27 -27 55 -22 13 -74 65 -116 114 -64 74 -107 111
-130 111 -13 0 -45 -47 -45 -66 0 -16 13 -27 61 -48 95 -43 123 -111 78 -186
-28 -45 -53 -66 -96 -81 -72 -23 -103 10 -108 116 -4 83 12 210 30 245 37 71
87 88 143 47z m267 -646 c52 -23 85 -69 77 -109 -3 -17 -37 -58 -92 -112 -82
-80 -182 -201 -192 -231 -4 -12 -8 -12 -22 0 -9 8 -18 12 -21 9 -2 -2 -25 -50
-50 -106 -121 -275 -167 -352 -222 -380 -137 -70 -237 -16 -441 238 -104 129
-143 165 -319 297 -138 103 -169 131 -145 134 4 0 16 2 27 4 52 11 113 -25
284 -165 23 -19 102 -102 174 -185 187 -213 247 -270 301 -285 89 -25 113 -5
214 181 35 62 118 263 139 332 6 21 8 21 38 1 23 -15 24 -14 58 38 19 29 58
75 88 102 30 27 71 65 92 83 49 46 49 76 -1 102 -33 17 -48 8 -62 -36 -40
-125 -150 -157 -229 -68 -26 30 -51 88 -51 121 0 16 34 44 66 54 49 16 238 4
289 -19z"/>
<path d="M1174 1714 c-32 -17 -63 -52 -64 -72 0 -10 22 -13 96 -10 103 3 124
13 103 47 -26 40 -91 57 -135 35z"/>
<path d="M1316 1277 c-15 -19 -26 -44 -26 -57 0 -30 39 -88 64 -96 27 -9 35
12 34 81 -2 109 -26 132 -72 72z"/>
<path d="M1632 1883 c-14 -27 -4 -155 13 -172 13 -13 17 -12 36 5 12 10 28 34
36 52 12 28 12 37 -2 65 -8 18 -29 41 -45 50 -28 17 -29 17 -38 0z"/>
<path d="M1730 1377 c-30 -8 -31 -9 -18 -29 8 -12 31 -30 50 -40 33 -17 40
-18 70 -5 39 17 72 51 66 69 -5 15 -117 18 -168 5z"/>
<path d="M2257 2759 c-30 -18 -47 -62 -34 -89 17 -33 39 -44 71 -36 23 6 26 9
15 22 -8 10 -16 11 -22 5 -16 -16 -46 6 -42 30 9 48 62 69 72 29 7 -25 33 -26
33 -1 0 19 -39 51 -62 51 -7 0 -21 -5 -31 -11z"/>
<path d="M662 2740 c-24 -22 -27 -37 -13 -59 7 -10 21 -12 55 -7 47 7 58 -1
31 -24 -8 -6 -23 -9 -35 -5 -14 4 -20 2 -20 -9 0 -20 30 -25 61 -10 30 15 41
43 27 68 -8 15 -18 16 -61 11 -47 -7 -50 -6 -38 9 7 9 24 16 37 16 27 0 32 15
8 24 -24 9 -28 8 -52 -14z"/>
<path d="M2358 2651 c-38 -49 -47 -71 -28 -71 14 0 91 100 84 111 -9 16 -18 9
-56 -40z"/>
<path d="M579 2671 c-8 -3 -28 -16 -43 -28 l-29 -23 43 -55 c27 -35 47 -52 52
-47 6 6 4 19 -7 35 -20 31 -8 39 35 27 18 -5 37 -7 41 -4 17 10 8 23 -21 29
-23 5 -29 11 -25 24 7 22 -24 51 -46 42z m11 -56 c-7 -8 -19 -15 -26 -15 -20
0 -17 27 4 39 23 13 39 -3 22 -24z"/>
<path d="M2407 2610 l-46 -51 38 -34 c21 -19 41 -35 45 -35 15 0 4 26 -19 45
-18 15 -22 24 -15 35 8 12 13 11 38 -7 39 -29 49 -17 16 18 -32 34 -13 51 21
19 13 -12 29 -19 35 -15 7 4 3 14 -13 28 -55 51 -51 51 -100 -3z"/>
<path d="M438 2553 l-37 -36 51 -49 50 -50 35 36 c20 20 32 40 28 46 -4 7 -10
8 -14 4 -19 -27 -48 -42 -61 -34 -12 7 -11 13 9 34 13 13 20 30 16 36 -4 7
-14 2 -28 -14 -15 -17 -26 -23 -36 -17 -11 7 -9 14 13 36 14 14 24 31 21 36
-8 12 -6 14 -47 -28z"/>
<path d="M2510 2516 c-54 -51 -56 -81 -4 -41 l35 27 -7 -29 c-4 -15 -11 -35
-15 -44 -5 -11 -4 -21 4 -27 16 -13 115 74 100 89 -7 7 -18 2 -34 -15 -34 -36
-39 -32 -23 20 23 77 8 82 -56 20z"/>
<path d="M370 2473 c0 -10 9 -29 20 -43 33 -42 25 -51 -24 -30 -36 15 -47 16
-55 6 -9 -10 5 -18 59 -37 91 -31 100 -22 52 59 -37 63 -52 76 -52 45z"/>
<path d="M2625 2420 c-26 -10 -40 -28 -48 -59 -7 -27 33 -74 59 -69 23 5 22
23 -3 26 -44 6 -35 66 13 78 29 7 37 2 39 -29 1 -12 8 -22 16 -22 21 0 13 47
-12 68 -23 19 -34 20 -64 7z"/>
<path d="M275 2361 c-5 -9 28 -38 87 -75 18 -12 28 -14 33 -6 4 6 5 12 4 14
-2 1 -28 19 -57 39 -57 41 -58 41 -67 28z"/>
<path d="M2700 2287 c-30 -18 -54 -37 -53 -43 6 -28 46 -85 55 -76 5 5 2 21
-9 40 -10 17 -15 34 -11 38 12 11 40 -5 45 -26 3 -11 9 -20 12 -20 17 0 19 14
6 41 -18 34 -18 39 -2 39 7 0 21 -14 31 -30 9 -17 22 -28 27 -24 8 5 -17 59
-40 86 -4 4 -31 -7 -61 -25z"/>
<path d="M240 2296 c0 -8 14 -20 30 -28 17 -7 30 -15 30 -18 0 -3 -21 -6 -47
-8 -26 -1 -51 -6 -56 -11 -10 -10 102 -83 115 -75 15 10 8 22 -22 34 -30 13
-40 28 -17 27 52 -2 87 5 87 16 0 12 -96 77 -113 77 -4 0 -7 -6 -7 -14z"/>
<path d="M2790 2175 c-7 -9 -13 -34 -12 -56 2 -36 0 -39 -18 -29 -15 8 -18 17
-13 42 5 24 3 30 -8 26 -23 -7 -23 -60 1 -85 15 -17 25 -20 43 -14 19 7 22 15
20 55 -1 45 8 58 24 34 4 -7 6 -24 4 -37 -2 -16 2 -22 11 -19 22 7 21 55 -1
77 -25 25 -34 26 -51 6z"/>
<path d="M160 2160 c0 -5 23 -21 50 -35 45 -23 49 -28 40 -45 -13 -24 -8 -24
-65 0 -55 24 -55 24 -55 6 0 -20 91 -55 118 -45 22 8 38 48 29 74 -6 15 -81
55 -104 55 -7 0 -13 -4 -13 -10z"/>
<path d="M2885 1992 c-4 -4 -25 -7 -47 -7 -53 0 -62 -23 -36 -83 18 -41 21
-43 37 -28 10 9 21 13 24 9 4 -3 7 1 7 10 0 10 -5 17 -11 17 -5 0 -7 5 -4 11
4 6 19 7 35 4 33 -7 44 6 36 39 -6 25 -29 40 -41 28z m-46 -59 c-15 -18 -34
-1 -25 22 5 14 9 15 21 5 12 -10 13 -16 4 -27z m71 22 c0 -9 -6 -12 -15 -9 -8
4 -12 10 -9 15 8 14 24 10 24 -6z"/>
<path d="M80 1967 c0 -8 19 -19 43 -26 57 -17 69 -28 57 -52 -9 -17 -13 -17
-58 -4 -58 18 -62 18 -62 2 0 -16 56 -37 98 -37 26 0 35 5 42 26 18 48 13 61
-32 78 -75 27 -88 29 -88 13z"/>
<path d="M59 1811 c-11 -9 -23 -33 -25 -52 -6 -40 -5 -41 87 -54 l45 -7 2 44
c3 54 -6 67 -52 78 -28 6 -41 4 -57 -9z m60 -22 c19 -7 31 -18 31 -29 0 -26
-13 -31 -59 -24 -40 6 -44 18 -18 52 11 15 7 14 46 1z"/>
<path d="M2944 1799 c1 -14 -6 -23 -19 -25 -68 -10 -85 -16 -85 -30 0 -15 34
-14 93 3 13 3 20 -2 24 -16 3 -12 9 -21 14 -21 10 0 11 20 3 73 -7 39 -31 52
-30 16z"/>
<path d="M37 1667 c-16 -12 -32 -96 -19 -98 4 0 16 -2 27 -4 11 -2 39 -6 63
-8 35 -3 42 -1 40 12 -2 9 -15 18 -30 21 -31 6 -27 17 15 43 15 10 27 25 27
33 0 14 -5 13 -35 -5 -19 -11 -35 -16 -35 -11 0 18 -36 30 -53 17z m36 -57
c-7 -28 -33 -25 -33 3 0 13 3 27 7 30 11 12 31 -13 26 -33z"/>
<path d="M2882 1672 c-32 -3 -33 -5 -28 -40 3 -20 5 -45 6 -55 0 -33 20 -6 20
28 0 31 14 54 26 42 6 -5 12 -32 13 -54 2 -30 21 -10 21 22 0 24 5 35 15 35
10 0 15 -11 15 -35 0 -22 5 -35 13 -35 8 0 12 11 11 28 -1 15 -3 37 -3 49 -1
24 -8 25 -109 15z"/>
<path d="M2872 1520 c-18 -30 -15 -73 8 -87 25 -16 37 2 15 23 -9 9 -14 23
-11 31 3 8 6 17 6 19 0 11 69 2 80 -11 10 -13 9 -19 -5 -35 -13 -15 -15 -24
-8 -31 13 -13 43 25 43 53 0 51 -101 81 -128 38z"/>
<path d="M10 1505 c0 -13 11 -16 50 -14 53 3 77 -10 67 -35 -4 -10 -23 -16
-57 -18 -64 -4 -70 -22 -8 -26 64 -4 88 10 88 51 0 46 -16 57 -82 57 -46 0
-58 -3 -58 -15z"/>
<path d="M2858 1389 c-19 -12 0 -24 45 -28 4 -1 7 -12 7 -26 0 -22 -4 -25 -36
-25 -35 0 -46 -21 -13 -25 99 -15 119 -15 119 0 0 13 -18 20 -42 16 -10 -1
-10 21 -2 43 4 11 13 14 30 10 18 -5 24 -2 24 10 0 9 -6 16 -12 17 -7 0 -34 4
-60 8 -26 4 -53 4 -60 0z"/>
<path d="M142 1309 c5 -34 -13 -46 -72 -51 -20 -2 -30 -8 -30 -19 0 -14 6 -15
48 -7 26 5 55 10 65 11 15 1 18 8 13 42 -3 22 -5 43 -5 48 -1 4 -6 7 -12 7 -7
0 -9 -12 -7 -31z"/>
<path d="M2830 1240 c0 -5 16 -12 35 -16 50 -9 50 -18 0 -33 -69 -20 -67 -42
5 -55 14 -2 37 -7 53 -11 21 -6 27 -4 27 8 0 10 -14 18 -42 23 l-43 7 39 13
c40 14 66 31 66 44 0 7 -90 30 -121 30 -10 0 -19 -4 -19 -10z"/>
<path d="M113 1182 c-52 -37 -69 -71 -35 -73 9 0 43 -4 75 -8 42 -5 57 -4 57
5 0 7 -9 15 -19 19 -24 7 -37 43 -22 58 12 12 15 37 4 37 -5 -1 -32 -18 -60
-38z m27 -37 c0 -9 -9 -15 -21 -15 -18 0 -19 2 -9 15 7 8 16 15 21 15 5 0 9
-7 9 -15z"/>
<path d="M2807 1095 c-56 -40 -25 -124 46 -125 34 0 67 32 67 65 0 23 -29 63
-47 66 -34 6 -52 4 -66 -6z m80 -42 c30 -38 -36 -73 -71 -37 -20 20 -20 29 0
49 18 18 52 12 71 -12z"/>
<path d="M188 1055 c-9 -20 -14 -22 -29 -14 -21 11 -59 -4 -59 -23 0 -26 24
-88 34 -87 6 0 37 10 68 22 43 16 55 25 49 36 -7 10 -13 11 -29 2 -11 -6 -23
-11 -26 -11 -13 0 -5 33 14 60 18 26 18 40 -2 40 -5 0 -13 -11 -20 -25z m-27
-56 c8 -17 8 -23 -2 -30 -19 -11 -29 -2 -29 27 0 30 15 31 31 3z"/>
<path d="M2738 948 c-19 -29 -29 -68 -17 -68 5 0 15 14 24 30 l16 30 48 -25
c45 -22 61 -23 61 -4 0 6 -104 59 -115 59 -2 0 -9 -10 -17 -22z"/>
<path d="M257 944 c-3 -4 0 -21 8 -39 7 -19 11 -36 7 -39 -13 -14 -32 -4 -38
19 -3 14 -12 25 -20 25 -18 0 -17 -4 1 -40 21 -40 -6 -49 -29 -9 -15 25 -36
39 -36 24 0 -11 41 -85 47 -85 13 0 113 55 113 62 0 8 -40 88 -44 88 -2 0 -5
-3 -9 -6z"/>
<path d="M2675 824 c-28 -30 -25 -70 8 -96 57 -45 132 6 111 75 -6 19 -53 47
-79 47 -9 0 -27 -12 -40 -26z m87 -27 c13 -21 8 -46 -11 -56 -14 -8 -25 -6
-45 10 -29 23 -32 39 -14 57 14 14 59 7 70 -11z"/>
<path d="M274 799 c-36 -18 -46 -54 -27 -94 9 -19 23 -35 30 -35 8 0 36 15 63
33 l50 34 -23 34 c-24 36 -56 46 -93 28z m74 -40 c2 -10 -11 -26 -34 -39 -30
-19 -38 -20 -45 -9 -13 20 -11 30 8 51 20 23 66 20 71 -3z"/>
<path d="M2588 690 c-34 -34 -36 -63 -5 -83 20 -13 24 -13 40 9 13 17 14 25 5
30 -6 4 -14 2 -16 -4 -6 -19 -22 -14 -22 8 0 28 31 42 61 27 32 -16 33 -58 2
-72 -30 -13 -30 -35 -1 -30 50 10 70 67 39 107 -31 39 -69 42 -103 8z"/>
<path d="M390 704 c0 -3 10 -19 21 -36 17 -23 19 -32 9 -41 -9 -9 -17 -6 -33
15 -14 17 -27 24 -35 19 -9 -6 -8 -12 8 -26 22 -20 27 -45 9 -45 -6 0 -20 11
-31 25 -11 14 -24 22 -29 19 -8 -5 5 -28 47 -83 4 -5 50 25 85 56 l28 26 -30
38 c-28 35 -49 49 -49 33z"/>
<path d="M2486 568 c4 -7 15 -19 25 -25 9 -7 20 -33 24 -59 6 -41 8 -45 21
-32 11 11 12 21 5 40 -9 25 -8 26 22 25 45 -3 45 16 0 26 -20 4 -44 14 -53 22
-21 19 -54 20 -44 3z"/>
<path d="M440 549 c0 -7 8 -18 18 -25 13 -10 14 -15 5 -25 -10 -10 -18 -8 -38
11 -14 13 -28 21 -31 17 -7 -7 34 -63 52 -70 17 -8 108 83 96 95 -8 8 -16 6
-27 -6 -20 -20 -29 -20 -45 -1 -15 18 -30 20 -30 4z"/>
<path d="M686 324 c-8 -8 -13 -21 -9 -30 8 -22 47 -13 51 12 4 27 -22 38 -42
18z"/>
<path d="M2271 326 c-17 -20 -2 -48 23 -44 27 4 32 34 8 47 -15 8 -23 7 -31
-3z"/>
<path d="M971 174 c-20 -52 -20 -81 -1 -69 4 3 15 24 23 48 8 23 18 50 22 60
5 11 2 17 -8 17 -8 0 -23 -23 -36 -56z"/>
<path d="M1962 215 l-32 -14 21 -58 c12 -32 23 -60 25 -61 1 -2 19 1 38 8 36
11 54 33 50 58 -1 6 -2 18 -3 25 -4 42 -51 62 -99 42z m69 -46 c11 -28 10 -33
-6 -45 -27 -20 -32 -18 -44 17 -16 47 -14 59 13 59 17 0 27 -9 37 -31z"/>
<path d="M1048 203 c-27 -7 -22 -50 7 -69 27 -18 34 -44 11 -44 -8 0 -22 9
-30 21 -20 29 -39 21 -23 -10 15 -31 62 -45 82 -24 23 23 18 46 -17 75 -31 26
-32 27 -10 28 12 0 25 -7 28 -15 7 -16 34 -21 34 -5 0 13 -41 50 -54 49 -6 -1
-19 -3 -28 -6z"/>
<path d="M1852 181 c-17 -10 -28 -141 -12 -141 6 0 14 9 17 19 7 26 43 34 65
14 35 -31 30 -3 -8 52 -44 65 -46 66 -62 56z m32 -73 c-11 -17 -24 -6 -24 19
0 26 1 26 14 8 8 -11 12 -23 10 -27z"/>
<path d="M1151 148 c-6 -18 -12 -48 -13 -67 -3 -33 -1 -35 36 -43 21 -5 41 -6
44 -4 10 10 -11 26 -35 26 -21 0 -24 3 -19 23 3 12 9 39 12 60 8 46 -10 50
-25 5z"/>
<path d="M1700 150 c-14 -4 -24 -13 -22 -21 2 -8 6 -34 9 -59 6 -45 16 -61 37
-55 6 2 23 6 38 9 37 8 53 39 32 61 -9 8 -14 21 -11 29 13 32 -30 51 -83 36z
m56 -39 c-10 -16 -46 -13 -46 3 0 16 30 27 44 15 4 -4 5 -12 2 -18z m14 -45
c0 -20 -40 -32 -51 -15 -5 8 -3 17 4 21 20 13 47 9 47 -6z"/>
<path d="M1271 96 c-17 -31 -31 -60 -31 -66 0 -15 20 -12 26 4 8 20 53 17 65
-5 5 -11 16 -19 23 -19 10 0 9 14 -4 67 -21 88 -38 92 -79 19z m49 -6 c0 -11
-6 -20 -14 -20 -9 0 -12 7 -9 20 3 11 9 20 14 20 5 0 9 -9 9 -20z"/>
<path d="M1391 71 c-2 -60 0 -70 13 -65 11 4 14 15 11 35 -3 16 -1 29 5 29 5
0 11 -7 11 -15 1 -8 3 -19 4 -25 1 -5 3 -14 4 -18 0 -5 8 -9 16 -9 12 0 32 50
27 70 -1 4 2 7 7 7 5 0 8 -16 7 -37 0 -21 4 -38 12 -40 8 -3 12 7 13 29 1 18
2 42 3 53 1 26 -12 55 -25 55 -6 0 -18 -19 -27 -41 l-16 -41 -11 38 c-7 27
-17 40 -31 42 -19 3 -21 -2 -23 -67z"/>
<path d="M1571 98 c-7 -24 -17 -53 -22 -66 -12 -30 -12 -32 6 -32 8 0 15 7 15
15 0 8 3 16 8 16 36 7 54 4 59 -7 5 -14 33 -20 32 -6 0 4 -12 32 -27 62 -35
70 -54 75 -71 18z m37 -37 c-15 -5 -21 7 -13 26 7 17 8 17 15 -2 4 -11 3 -22
-2 -24z"/>
</g>
</svg>
